<svg width="28" height="25" viewBox="0 0 28 25" fill="none" xmlns="http://www.w3.org/2000/svg">
<g filter="url(#filter0_d)">
<path d="M14 17C13.7153 17 13.4408 16.9015 13.2268 16.7224C12.4189 16.0475 11.6399 15.4132 10.9527 14.8536L10.9492 14.8507C8.93423 13.2102 7.19427 11.7935 5.98364 10.3979C4.63034 8.83778 4 7.35852 4 5.74252C4 4.17244 4.56351 2.72395 5.58661 1.66367C6.62192 0.590857 8.04251 0 9.58716 0C10.7416 0 11.7989 0.348712 12.7296 1.03637C13.1992 1.38348 13.6249 1.80829 14 2.3038C14.3752 1.80829 14.8008 1.38348 15.2706 1.03637C16.2012 0.348712 17.2585 0 18.413 0C19.9575 0 21.3782 0.590857 22.4135 1.66367C23.4366 2.72395 24 4.17244 24 5.74252C24 7.35852 23.3698 8.83778 22.0165 10.3978C20.8059 11.7935 19.0661 13.2101 17.0515 14.8504C16.363 15.4108 15.5828 16.0461 14.773 16.7227C14.5592 16.9015 14.2846 17 14 17V17ZM9.58716 1.11932C8.37363 1.11932 7.25882 1.58203 6.44781 2.42232C5.62476 3.2753 5.17142 4.45439 5.17142 5.74252C5.17142 7.10165 5.70013 8.31719 6.88559 9.68375C8.03137 11.0047 9.73563 12.3922 11.7089 13.9989L11.7126 14.0018C12.4024 14.5635 13.1844 15.2003 13.9983 15.8802C14.8171 15.199 15.6003 14.5612 16.2916 13.9986C18.2647 12.392 19.9688 11.0047 21.1146 9.68375C22.2999 8.31719 22.8286 7.10165 22.8286 5.74252C22.8286 4.45439 22.3752 3.2753 21.5522 2.42232C20.7413 1.58203 19.6264 1.11932 18.413 1.11932C17.524 1.11932 16.7078 1.38931 15.9872 1.92171C15.3449 2.39637 14.8975 2.99642 14.6352 3.41627C14.5003 3.63217 14.2629 3.76105 14 3.76105C13.7371 3.76105 13.4997 3.63217 13.3648 3.41627C13.1026 2.99642 12.6552 2.39637 12.0128 1.92171C11.2922 1.38931 10.476 1.11932 9.58716 1.11932V1.11932Z" fill="#FF6767"/>
</g>
<defs>
<filter id="filter0_d" x="0" y="0" width="28" height="25" filterUnits="userSpaceOnUse" color-interpolation-filters="sRGB">
<feFlood flood-opacity="0" result="BackgroundImageFix"/>
<feColorMatrix in="SourceAlpha" type="matrix" values="0 0 0 0 0 0 0 0 0 0 0 0 0 0 0 0 0 0 127 0"/>
<feOffset dy="4"/>
<feGaussianBlur stdDeviation="2"/>
<feColorMatrix type="matrix" values="0 0 0 0 0 0 0 0 0 0 0 0 0 0 0 0 0 0 0.25 0"/>
<feBlend mode="normal" in2="BackgroundImageFix" result="effect1_dropShadow"/>
<feBlend mode="normal" in="SourceGraphic" in2="effect1_dropShadow" result="shape"/>
</filter>
</defs>
</svg>
